<svg width="121" height="34" viewBox="0 0 121 34" fill="none" xmlns="http://www.w3.org/2000/svg">
<rect y="13.6" width="6.87336" height="6.79999" fill="black"/>
<rect x="20.6201" y="20.4" width="6.87337" height="6.79999" transform="rotate(180 20.6201 20.4)" fill="black"/>
<path opacity="0.4" d="M6.87347 13.6L13.7468 6.79999V13.6L6.87347 20.4V13.6Z" fill="black"/>
<path opacity="0.6" d="M13.7467 20.4L6.87334 27.2L6.87334 20.4L13.7467 13.6L13.7467 20.4Z" fill="black"/>
<path opacity="0.8" d="M0 13.6L13.7467 0V6.79999L6.87336 13.6H0Z" fill="black"/>
<path opacity="0.8" d="M20.6201 20.4L6.87338 34L6.87338 27.2L13.7468 20.4L20.6201 20.4Z" fill="black"/>
<path d="M35.5898 24.2816C34.5072 24.2816 33.4581 24.1296 32.4423 23.8255C31.44 23.5214 30.6448 23.1181 30.0567 22.6156L30.9588 20.6125C31.5335 21.062 32.2352 21.4323 33.0638 21.7231C33.9058 22.0008 34.7478 22.1396 35.5898 22.1396C36.6322 22.1396 37.4074 21.9744 37.9153 21.6438C38.4365 21.3133 38.6971 20.8769 38.6971 20.3348C38.6971 19.9381 38.5501 19.6142 38.2561 19.363C37.9754 19.0985 37.6145 18.8936 37.1735 18.7481C36.7325 18.6027 36.131 18.4374 35.3692 18.2523C34.3001 18.0011 33.4313 17.7499 32.7631 17.4986C32.1082 17.2474 31.5402 16.8574 31.0591 16.3285C30.5913 15.7864 30.3574 15.0591 30.3574 14.1468C30.3574 13.3799 30.5646 12.6858 30.9789 12.0643C31.4066 11.4296 32.0414 10.9272 32.8834 10.557C33.7387 10.1868 34.7812 10.0016 36.0108 10.0016C36.8661 10.0016 37.7081 10.1074 38.5367 10.319C39.3653 10.5305 40.0804 10.8346 40.6818 11.2313L39.8598 13.2345C39.2451 12.8775 38.6035 12.6064 37.9353 12.4213C37.2671 12.2362 36.6189 12.1436 35.9907 12.1436C34.9616 12.1436 34.1931 12.3155 33.6853 12.6593C33.1908 13.0031 32.9435 13.4593 32.9435 14.0278C32.9435 14.4245 33.0838 14.7484 33.3645 14.9996C33.6585 15.2509 34.0261 15.4492 34.4671 15.5946C34.9082 15.7401 35.5096 15.9054 36.2714 16.0905C37.3138 16.3285 38.1692 16.5797 38.8374 16.8441C39.5057 17.0954 40.0737 17.4854 40.5415 18.0143C41.0226 18.5432 41.2632 19.2572 41.2632 20.1563C41.2632 20.9232 41.0493 21.6174 40.6216 22.2388C40.2073 22.8603 39.5725 23.3561 38.7172 23.7263C37.8618 24.0965 36.8193 24.2816 35.5898 24.2816Z" fill="black"/>
<path d="M43.6068 13.4923H46.1127V24.0833H43.6068V13.4923ZM44.8698 11.747C44.4154 11.747 44.0345 11.6081 43.7271 11.3305C43.4197 11.0396 43.266 10.6826 43.266 10.2595C43.266 9.83636 43.4197 9.48597 43.7271 9.20831C44.0345 8.91742 44.4154 8.77197 44.8698 8.77197C45.3242 8.77197 45.7051 8.91081 46.0125 9.18847C46.3199 9.45292 46.4736 9.79008 46.4736 10.2C46.4736 10.6363 46.3199 11.0065 46.0125 11.3106C45.7185 11.6015 45.3376 11.747 44.8698 11.747Z" fill="black"/>
<path d="M52.7096 24.2221C51.8408 24.2221 50.9922 24.1098 50.1636 23.885C49.3349 23.6602 48.6734 23.3759 48.1789 23.0321L49.1411 21.148C49.6223 21.4653 50.197 21.7231 50.8652 21.9215C51.5468 22.1066 52.2151 22.1991 52.8699 22.1991C54.3668 22.1991 55.1152 21.8091 55.1152 21.029C55.1152 20.6588 54.9215 20.4009 54.5339 20.2555C54.1597 20.11 53.5516 19.9712 52.7096 19.839C51.8275 19.7068 51.1058 19.5547 50.5445 19.3828C49.9965 19.2109 49.5154 18.9134 49.101 18.4903C48.7001 18.054 48.4996 17.4524 48.4996 16.6855C48.4996 15.6806 48.9206 14.8806 49.7626 14.2856C50.618 13.6774 51.7673 13.3733 53.2107 13.3733C53.9458 13.3733 54.6809 13.4593 55.416 13.6311C56.151 13.7898 56.7524 14.008 57.2202 14.2856L56.2579 16.1698C55.3491 15.6409 54.3267 15.3765 53.1907 15.3765C52.4556 15.3765 51.8943 15.4889 51.5067 15.7136C51.1325 15.9252 50.9454 16.2095 50.9454 16.5665C50.9454 16.9631 51.1459 17.2474 51.5468 17.4193C51.9611 17.578 52.596 17.73 53.4513 17.8755C54.3067 18.0077 55.0083 18.1598 55.5563 18.3316C56.1042 18.5035 56.572 18.7944 56.9596 19.2043C57.3605 19.6142 57.561 20.196 57.561 20.9496C57.561 21.9413 57.1267 22.7346 56.2579 23.3296C55.3892 23.9246 54.2064 24.2221 52.7096 24.2221Z" fill="black"/>
<path d="M69.547 13.4923L64.5351 24.9361C64.0674 26.0865 63.4994 26.893 62.8311 27.3558C62.1629 27.8318 61.3543 28.0698 60.4054 28.0698C59.8708 28.0698 59.3429 27.9839 58.8217 27.812C58.3004 27.6401 57.8727 27.4021 57.5386 27.098L58.541 25.2733C58.7816 25.4981 59.0622 25.6766 59.383 25.8088C59.7171 25.941 60.0512 26.0071 60.3853 26.0071C60.8264 26.0071 61.1872 25.8948 61.4679 25.67C61.7619 25.4452 62.0292 25.0684 62.2698 24.5395L62.4502 24.123L57.7792 13.4923H60.3853L63.7533 21.3265L67.1413 13.4923H69.547Z" fill="black"/>
<path d="M77.0472 13.3733C78.0896 13.3733 79.0185 13.5981 79.8338 14.0476C80.6624 14.4972 81.3106 15.1319 81.7784 15.9516C82.2461 16.7714 82.48 17.7168 82.48 18.7878C82.48 19.8588 82.2461 20.8108 81.7784 21.6438C81.3106 22.4636 80.6624 23.0983 79.8338 23.5478C79.0185 23.9974 78.0896 24.2221 77.0472 24.2221C75.6038 24.2221 74.4611 23.7461 73.6191 22.7941V27.931H71.1132V13.4923H73.4988V14.8806C73.9131 14.3782 74.421 14.0014 75.0224 13.7501C75.6372 13.4989 76.3121 13.3733 77.0472 13.3733ZM76.7665 22.1C77.6887 22.1 78.4438 21.7959 79.0319 21.1876C79.6333 20.5794 79.934 19.7795 79.934 18.7878C79.934 17.7961 79.6333 16.9962 79.0319 16.388C78.4438 15.7798 77.6887 15.4756 76.7665 15.4756C76.1651 15.4756 75.6238 15.6145 75.1427 15.8921C74.6616 16.1566 74.2807 16.54 74 17.0425C73.7193 17.5449 73.579 18.1267 73.579 18.7878C73.579 19.4489 73.7193 20.0307 74 20.5331C74.2807 21.0356 74.6616 21.4256 75.1427 21.7033C75.6238 21.9678 76.1651 22.1 76.7665 22.1Z" fill="black"/>
<path d="M90.9309 13.3733C92.2808 13.3733 93.3633 13.7634 94.1786 14.5435C94.9938 15.3236 95.4015 16.4805 95.4015 18.0143V24.0833H92.8955V18.3316C92.8955 17.4061 92.675 16.7119 92.234 16.2491C91.7929 15.7731 91.1648 15.5351 90.3495 15.5351C89.4274 15.5351 88.699 15.8128 88.1644 16.3681C87.6298 16.9103 87.3625 17.697 87.3625 18.7283V24.0833H84.8566V9.36697H87.3625V14.722C87.7768 14.2856 88.2847 13.9551 88.8861 13.7303C89.5009 13.4923 90.1825 13.3733 90.9309 13.3733Z" fill="black"/>
<path d="M108.945 13.4923V24.0833H106.559V22.7346C106.158 23.2106 105.657 23.5809 105.056 23.8453C104.454 24.0965 103.806 24.2221 103.111 24.2221C101.681 24.2221 100.552 23.8321 99.7231 23.052C98.9078 22.2586 98.5002 21.0885 98.5002 19.5415V13.4923H101.006V19.2043C101.006 20.1563 101.22 20.8703 101.648 21.3463C102.089 21.8091 102.71 22.0405 103.512 22.0405C104.407 22.0405 105.116 21.7694 105.637 21.2273C106.172 20.672 106.439 19.8786 106.439 18.8473V13.4923H108.945Z" fill="black"/>
<path d="M115.534 24.2221C114.665 24.2221 113.816 24.1098 112.988 23.885C112.159 23.6602 111.497 23.3759 111.003 23.0321L111.965 21.148C112.446 21.4653 113.021 21.7231 113.689 21.9215C114.371 22.1066 115.039 22.1991 115.694 22.1991C117.191 22.1991 117.939 21.8091 117.939 21.029C117.939 20.6588 117.746 20.4009 117.358 20.2555C116.984 20.11 116.376 19.9712 115.534 19.839C114.652 19.7068 113.93 19.5547 113.369 19.3828C112.821 19.2109 112.339 18.9134 111.925 18.4903C111.524 18.054 111.324 17.4524 111.324 16.6855C111.324 15.6806 111.745 14.8806 112.587 14.2856C113.442 13.6774 114.591 13.3733 116.035 13.3733C116.77 13.3733 117.505 13.4593 118.24 13.6311C118.975 13.7898 119.577 14.008 120.044 14.2856L119.082 16.1698C118.173 15.6409 117.151 15.3765 116.015 15.3765C115.28 15.3765 114.718 15.4889 114.331 15.7136C113.957 15.9252 113.77 16.2095 113.77 16.5665C113.77 16.9631 113.97 17.2474 114.371 17.4193C114.785 17.578 115.42 17.73 116.275 17.8755C117.131 18.0077 117.832 18.1598 118.38 18.3316C118.928 18.5035 119.396 18.7944 119.784 19.2043C120.185 19.6142 120.385 20.196 120.385 20.9496C120.385 21.9413 119.951 22.7346 119.082 23.3296C118.213 23.9246 117.031 24.2221 115.534 24.2221Z" fill="black"/>
</svg>
