<svg width="44" height="24" viewBox="0 0 44 24" fill="none" xmlns="http://www.w3.org/2000/svg">
<g clip-path="url(#clip0_1_5577)">
<path d="M12 24C18.6274 24 24 18.6274 24 12C24 5.37258 18.6274 0 12 0C5.37258 0 0 5.37258 0 12C0 18.6274 5.37258 24 12 24Z" fill="#F7931A"/>
<path d="M17.274 10.515C17.5095 8.943 16.3118 8.09775 14.6753 7.53375L15.2063 5.40375L13.9103 5.08125L13.3928 7.155C13.0523 7.0695 12.7028 6.99 12.354 6.9105L12.8753 4.82325L11.5793 4.5L11.0483 6.62925C10.7663 6.56475 10.4888 6.50175 10.2203 6.43425L10.2218 6.4275L8.43375 5.98125L8.08875 7.36575C8.08875 7.36575 9.051 7.58625 9.03075 7.59975C9.55575 7.731 9.65025 8.07825 9.6345 8.35425L9.03 10.7805C9.066 10.7895 9.1125 10.803 9.165 10.8232L9.02775 10.7895L8.18025 14.1885C8.11575 14.3475 7.953 14.5867 7.5855 14.496C7.599 14.5147 6.6435 14.2612 6.6435 14.2612L6 15.7448L7.6875 16.1655C8.001 16.2443 8.3085 16.3267 8.61075 16.404L8.0745 18.558L9.36975 18.8805L9.90075 16.7505C10.2548 16.8457 10.5983 16.9342 10.9343 17.0182L10.4048 19.1392L11.7008 19.4618L12.237 17.3123C14.448 17.7308 16.11 17.562 16.8098 15.5625C17.3738 13.953 16.782 13.0238 15.6188 12.4185C16.4663 12.2235 17.1038 11.6663 17.274 10.515ZM14.3115 14.6685C13.9118 16.2788 11.2005 15.408 10.3215 15.1898L11.034 12.336C11.913 12.5557 14.7308 12.99 14.3115 14.6685ZM14.7128 10.4918C14.3475 11.9565 12.0915 11.2118 11.3603 11.0295L12.0053 8.442C12.7365 8.62425 15.0938 8.964 14.7128 10.4918Z" fill="white"/>
</g>
<g clip-path="url(#clip1_1_5577)">
<path d="M43.5 12C43.5 18.3513 38.3513 23.5 32 23.5C25.6487 23.5 20.5 18.3513 20.5 12C20.5 5.64873 25.6487 0.5 32 0.5C38.3513 0.5 43.5 5.64873 43.5 12Z" fill="#6CDE07" stroke="#20252B"/>
<path fill-rule="evenodd" clip-rule="evenodd" d="M37.25 14.3655C37.25 16.293 35.6855 17.5725 33.3755 17.7653V19.5H31.793V17.748C30.2305 17.5718 28.746 16.9717 27.5 16.0125L28.664 14.418C29.7013 15.2243 30.683 15.75 31.8658 15.9255V12.4905C29.21 11.8245 27.9732 10.8607 27.9732 8.88075C27.9732 6.9885 29.519 5.69175 31.793 5.51625V4.5H33.3755V5.5515C34.6123 5.68888 35.7915 6.14815 36.7955 6.8835L35.7762 8.5305C34.976 7.95225 34.1577 7.584 33.3027 7.40925V10.7385C36.068 11.4045 37.25 12.4732 37.25 14.3655ZM31.865 10.3702V7.28625C30.7197 7.374 30.1198 7.9875 30.1198 8.7585C30.1198 9.4935 30.4648 9.9675 31.8658 10.371L31.865 10.3702ZM35.1035 14.4877C35.1035 13.7002 34.721 13.227 33.3027 12.8235V15.996C34.4487 15.9075 35.1035 15.3293 35.1035 14.4885V14.4877Z" fill="white"/>
</g>
<defs>
<clipPath id="clip0_1_5577">
<rect width="24" height="24" fill="white"/>
</clipPath>
<clipPath id="clip1_1_5577">
<rect width="24" height="24" fill="white" transform="translate(20)"/>
</clipPath>
</defs>
</svg>
