<svg width="20" height="20" viewBox="0 0 20 20" fill="none" xmlns="http://www.w3.org/2000/svg">
<path d="M3.33366 15.4167H4.16699V16.6667C4.16699 16.9 4.35033 17.0833 4.58366 17.0833C4.81699 17.0833 5.00033 16.9 5.00033 16.6667V15.4167H5.83366C6.06699 15.4167 6.25033 15.2333 6.25033 15V8.33333C6.25033 8.1 6.06699 7.91667 5.83366 7.91667H5.00033V6.66667C5.00033 6.43333 4.81699 6.25 4.58366 6.25C4.35033 6.25 4.16699 6.43333 4.16699 6.66667V7.91667H3.33366C3.10033 7.91667 2.91699 8.1 2.91699 8.33333V15C2.91699 15.2333 3.10033 15.4167 3.33366 15.4167ZM3.75033 8.75H5.41699V14.5833H3.75033V8.75ZM7.50033 12.0833H8.33366V13.3333C8.33366 13.5667 8.51699 13.75 8.75033 13.75C8.98366 13.75 9.16699 13.5667 9.16699 13.3333V12.0833H10.0003C10.2337 12.0833 10.417 11.9 10.417 11.6667V5C10.417 4.76667 10.2337 4.58333 10.0003 4.58333H9.16699V3.33333C9.16699 3.1 8.98366 2.91667 8.75033 2.91667C8.51699 2.91667 8.33366 3.1 8.33366 3.33333V4.58333H7.50033C7.26699 4.58333 7.08366 4.76667 7.08366 5V11.6667C7.08366 11.9 7.26699 12.0833 7.50033 12.0833ZM7.91699 5.41667H9.58366V11.25H7.91699V5.41667ZM11.667 13.75H12.5003V15C12.5003 15.2333 12.6837 15.4167 12.917 15.4167C13.1503 15.4167 13.3337 15.2333 13.3337 15V13.75H14.167C14.4003 13.75 14.5837 13.5667 14.5837 13.3333V6.66667C14.5837 6.43333 14.4003 6.25 14.167 6.25H13.3337V5C13.3337 4.76667 13.1503 4.58333 12.917 4.58333C12.6837 4.58333 12.5003 4.76667 12.5003 5V6.25H11.667C11.4337 6.25 11.2503 6.43333 11.2503 6.66667V13.3333C11.2503 13.5667 11.4337 13.75 11.667 13.75ZM12.0837 7.08333H13.7503V12.9167H12.0837V7.08333ZM18.3337 2.91667H17.5003V1.66667C17.5003 1.43333 17.317 1.25 17.0837 1.25C16.8503 1.25 16.667 1.43333 16.667 1.66667V2.91667H15.8337C15.6003 2.91667 15.417 3.1 15.417 3.33333V10C15.417 10.2333 15.6003 10.4167 15.8337 10.4167H16.667V11.6667C16.667 11.9 16.8503 12.0833 17.0837 12.0833C17.317 12.0833 17.5003 11.9 17.5003 11.6667V10.4167H18.3337C18.567 10.4167 18.7503 10.2333 18.7503 10V3.33333C18.7503 3.1 18.567 2.91667 18.3337 2.91667ZM17.917 9.58333H16.2503V3.75H17.917V9.58333Z" fill="#A7B1BC"/>
<path d="M18.3333 17.9167H2.08333V1.66667C2.08333 1.43333 1.9 1.25 1.66667 1.25C1.43333 1.25 1.25 1.43333 1.25 1.66667V18.3333C1.25 18.5667 1.43333 18.75 1.66667 18.75H18.3333C18.5667 18.75 18.75 18.5667 18.75 18.3333C18.75 18.1 18.5667 17.9167 18.3333 17.9167Z" fill="#A7B1BC"/>
</svg>
