<svg width="18" height="18" viewBox="0 0 18 18" fill="none" xmlns="http://www.w3.org/2000/svg">
<path d="M7.15835 9.65832L2.33335 14.4917V13.1667C2.33335 12.9456 2.24556 12.7337 2.08928 12.5774C1.933 12.4211 1.72103 12.3333 1.50002 12.3333C1.27901 12.3333 1.06704 12.4211 0.910765 12.5774C0.754484 12.7337 0.666687 12.9456 0.666687 13.1667V16.5C0.668004 16.6089 0.690653 16.7165 0.733354 16.8167C0.817916 17.0203 0.979729 17.1821 1.18335 17.2667C1.28354 17.3094 1.39112 17.332 1.50002 17.3333H4.83335C5.05437 17.3333 5.26633 17.2455 5.42261 17.0892C5.57889 16.933 5.66669 16.721 5.66669 16.5C5.66669 16.279 5.57889 16.067 5.42261 15.9107C5.26633 15.7545 5.05437 15.6667 4.83335 15.6667H3.50835L8.34169 10.8417C8.49861 10.6847 8.58676 10.4719 8.58676 10.25C8.58676 10.0281 8.49861 9.81524 8.34169 9.65832C8.18477 9.5014 7.97194 9.41325 7.75002 9.41325C7.5281 9.41325 7.31527 9.5014 7.15835 9.65832ZM17.2667 1.18332C17.1821 0.979699 17.0203 0.817886 16.8167 0.733323C16.7165 0.690622 16.6089 0.667973 16.5 0.666656H13.1667C12.9457 0.666656 12.7337 0.754454 12.5774 0.910734C12.4212 1.06701 12.3334 1.27898 12.3334 1.49999C12.3334 1.721 12.4212 1.93297 12.5774 2.08925C12.7337 2.24553 12.9457 2.33332 13.1667 2.33332H14.4917L9.65835 7.15832C9.58025 7.23579 9.51825 7.32796 9.47594 7.42951C9.43364 7.53106 9.41186 7.63998 9.41186 7.74999C9.41186 7.86 9.43364 7.96892 9.47594 8.07047C9.51825 8.17202 9.58025 8.26419 9.65835 8.34166C9.73582 8.41976 9.82799 8.48176 9.92954 8.52407C10.0311 8.56637 10.14 8.58816 10.25 8.58816C10.36 8.58816 10.469 8.56637 10.5705 8.52407C10.6721 8.48176 10.7642 8.41976 10.8417 8.34166L15.6667 3.50832V4.83332C15.6667 5.05434 15.7545 5.2663 15.9108 5.42258C16.067 5.57886 16.279 5.66666 16.5 5.66666C16.721 5.66666 16.933 5.57886 17.0893 5.42258C17.2456 5.2663 17.3334 5.05434 17.3334 4.83332V1.49999C17.332 1.39109 17.3094 1.28351 17.2667 1.18332Z" fill="#A7B1BC"/>
</svg>
