<svg width="32" height="32" viewBox="0 0 32 32" fill="none" xmlns="http://www.w3.org/2000/svg">
<path fill-rule="evenodd" clip-rule="evenodd" d="M4.79999 8.00002C4.79999 7.11637 5.51633 6.40002 6.39999 6.40002H25.6C26.4836 6.40002 27.2 7.11637 27.2 8.00002C27.2 8.88368 26.4836 9.60002 25.6 9.60002H6.39999C5.51633 9.60002 4.79999 8.88368 4.79999 8.00002Z" fill="#8D98AF"/>
<path fill-rule="evenodd" clip-rule="evenodd" d="M4.79999 16C4.79999 15.1164 5.51633 14.4 6.39999 14.4H16C16.8836 14.4 17.6 15.1164 17.6 16C17.6 16.8837 16.8836 17.6 16 17.6H6.39999C5.51633 17.6 4.79999 16.8837 4.79999 16Z" fill="#8D98AF"/>
<path fill-rule="evenodd" clip-rule="evenodd" d="M4.79999 24C4.79999 23.1164 5.51633 22.4 6.39999 22.4H25.6C26.4836 22.4 27.2 23.1164 27.2 24C27.2 24.8837 26.4836 25.6 25.6 25.6H6.39999C5.51633 25.6 4.79999 24.8837 4.79999 24Z" fill="#8D98AF"/>
</svg>
