<svg width="20" height="20" viewBox="0 0 20 20" fill="none" xmlns="http://www.w3.org/2000/svg">
<path fill-rule="evenodd" clip-rule="evenodd" d="M16.6666 10C16.6666 8.37316 16.5325 6.87349 16.3735 5.66978C16.2304 4.58646 15.4135 3.76957 14.3302 3.6265C13.1265 3.46752 11.6268 3.33335 9.99998 3.33335C8.37312 3.33335 6.87345 3.46752 5.66973 3.6265C4.58642 3.76957 3.76953 4.58646 3.62646 5.66977C3.46748 6.87349 3.33331 8.37316 3.33331 10C3.33331 11.6269 3.46748 13.1266 3.62646 14.3303C3.76953 15.4136 4.58641 16.2305 5.66973 16.3735C6.87345 16.5325 8.37312 16.6667 9.99998 16.6667C11.6268 16.6667 13.1265 16.5325 14.3302 16.3735C15.4135 16.2305 16.2304 15.4136 16.3735 14.3303C16.5325 13.1266 16.6666 11.6269 16.6666 10ZM18.0258 5.45155C17.784 3.62089 16.3791 2.21596 14.5484 1.97418C13.2899 1.80797 11.7156 1.66669 9.99998 1.66669C8.28437 1.66669 6.71005 1.80796 5.45151 1.97418C3.62085 2.21596 2.21592 3.62089 1.97414 5.45155C1.80792 6.71009 1.66664 8.28441 1.66664 10C1.66664 11.7156 1.80792 13.29 1.97414 14.5485C2.21592 16.3792 3.62085 17.7841 5.45151 18.0259C6.71005 18.1921 8.28437 18.3334 9.99998 18.3334C11.7156 18.3334 13.2899 18.1921 14.5484 18.0259C16.3791 17.7841 17.784 16.3792 18.0258 14.5485C18.192 13.29 18.3333 11.7156 18.3333 10C18.3333 8.28442 18.192 6.71009 18.0258 5.45155Z" fill="#A7B1BC"/>
<path fill-rule="evenodd" clip-rule="evenodd" d="M13.5059 8.16078C13.1805 7.83534 12.6528 7.83534 12.3274 8.16078L10 10.4882L7.67259 8.16078C7.34715 7.83534 6.81951 7.83534 6.49408 8.16078C6.16864 8.48621 6.16864 9.01385 6.49408 9.33929L9.41074 12.256C9.73618 12.5814 10.2638 12.5814 10.5893 12.256L13.5059 9.33929C13.8314 9.01385 13.8314 8.48621 13.5059 8.16078Z" fill="#737A91"/>
</svg>
